<?xml version="1.0" encoding="UTF-8"?>
<!DOCTYPE svg PUBLIC "-//W3C//DTD SVG 1.1//EN" "http://www.w3.org/Graphics/SVG/1.1/DTD/svg11.dtd">
<!-- Creator: CorelDRAW -->
<svg xmlns="http://www.w3.org/2000/svg" xml:space="preserve" width="14.9401mm" height="14.9454mm" version="1.1" style="shape-rendering:geometricPrecision; text-rendering:geometricPrecision; image-rendering:optimizeQuality; fill-rule:evenodd; clip-rule:evenodd"
viewBox="0 0 141.19 141.24"
 xmlns:xlink="http://www.w3.org/1999/xlink"
 xmlns:xodm="http://www.corel.com/coreldraw/odm/2003">
 <defs>
  <style type="text/css">
   <![CDATA[
    .fil0 {fill:white}
   ]]>
  </style>
 </defs>
 <g id="Layer_x0020_1">
  <metadata id="CorelCorpID_0Corel-Layer"/>
  <g id="_105553121555680">
   <path class="fil0" d="M8.9 69.96c0,7.25 0.93,13.54 3.08,19.97 0.34,1.01 0.61,1.74 0.95,2.7l1.61 3.79c1.52,3.25 3.25,6.38 5.32,9.3 2.43,3.42 6.29,8.26 9.47,10.72 0.83,0.64 2.86,2.57 3.97,3.34l4.33 2.99c0.75,0.51 1.5,0.89 2.29,1.37l2.36 1.3c2.44,1.21 5.06,2.45 7.65,3.32 2.81,0.94 5.69,1.82 8.61,2.36 1.94,0.36 4.33,0.84 6.48,0.84 -0.81,-1.21 -1.84,-2.29 -2.83,-3.37l-17.95 -21c-1.76,-2.1 -3.44,-4.28 -5.34,-6.27l-1.98 -2.31c-0.53,-0.51 -0.81,-0.48 -1.29,-0.94 -0.66,-0.65 -1.15,-1.86 -1.15,-3.15 -1.86,-0.98 -2.86,-1.83 -2.86,-4.61 0,-4.2 3.07,-9.83 4.74,-12.59 1.07,-1.77 2.37,-3.35 3.62,-4.97l3.05 -3.47c0.34,-0.34 0.96,-0.8 1.15,-1.07 -0.88,-1.66 -2.55,-2.8 -3.86,-4.09 -3.12,-3.09 -7.59,-11.5 -7.59,-16.26 0,-3.43 0.01,-2.77 1.54,-4.66 0.52,-0.64 0.49,-0.75 1.32,-0.75 0,-3.2 1.87,-3.86 4.52,-4.22 7.95,-1.09 15.08,1.17 21.54,5.03 0.71,0.43 1.39,1.07 2.23,1.26 0.4,-1.73 1.29,-3.26 2,-4.84l1.66 -2.95c0.95,-1.33 1.9,-2.77 3.06,-3.94 2.53,-2.56 8.14,-6.71 11.73,-6.71 1.71,0 2.27,1.1 2.86,2.23 1.88,-0.44 2.11,-1.96 5.23,1.93 0.65,0.81 1.09,1.84 1.81,2.64 0.32,0.35 0.42,0.53 0.72,0.87l10.25 12.01c0.36,0.36 0.4,0.51 0.72,0.87 0.29,0.33 0.38,0.45 0.65,0.78l3.56 4.07c0.49,0.55 0.88,1.11 1.36,1.66l4.26 4.97c0.01,0.01 0.14,0.17 0.14,0.17l3.81 4.46c1.75,2.24 3.7,4.24 5.47,6.45l1.41 1.61c0.3,0.34 0.35,0.47 0.64,0.79l1.42 1.6c0.32,0.38 0.36,0.49 0.72,0.87 0.48,0.51 0.93,1.1 1.37,1.65l2.05 2.4c0.38,0.42 0.52,0.34 0.67,0.92l0.32 0c0,-1.2 0.31,-2.08 0.32,-3.34l0.16 -6.84c0,-7.92 -2.31,-17.49 -5.83,-24.54 -0.22,-0.44 -0.34,-0.77 -0.56,-1.19 -0.25,-0.45 -0.41,-0.76 -0.66,-1.25 -0.87,-1.75 -1.84,-3.18 -2.82,-4.82 -3.81,-6.38 -11.01,-13.41 -16.88,-17.31 -3.14,-2.08 -6.35,-3.84 -9.77,-5.49l-8.29 -3c-0.9,-0.25 -2.02,-0.56 -3.04,-0.78 -10.62,-2.29 -23.18,-2.15 -33.4,1.6 -1.85,0.68 -3.87,1.33 -5.62,2.17 -0.49,0.24 -0.79,0.37 -1.29,0.61 -0.5,0.25 -0.81,0.36 -1.3,0.6 -0.48,0.24 -0.69,0.43 -1.22,0.69 -2.08,1.04 -4.05,2.27 -5.96,3.58l-8.43 6.99c-0.09,0.08 -0.16,0.14 -0.25,0.23 -0.09,0.09 -0.15,0.16 -0.23,0.25l-2.29 2.48c-0.39,0.39 -0.59,0.57 -0.92,0.99l-7.69 11.39c-0.48,0.94 -0.84,1.7 -1.29,2.68 -3.1,6.66 -5.65,15.53 -5.65,25.2z"/>
   <path class="fil0" d="M60.1 69.32c0,-4.15 2.49,-7.62 5.61,-9.17 7.48,-3.73 15.37,1.74 15.37,9.33 0,3.49 -0.99,5.62 -3.3,7.67 -2.9,2.58 -7.69,3.46 -11.6,1.83 -3.94,-1.64 -6.08,-5.39 -6.08,-9.66zm-8.27 -27.35c-0.7,-0.02 -1.07,-0.27 -1.67,-0.38 -2.03,-0.4 -7.9,-0.82 -9.94,-0.37 -0.1,0.02 -0.56,0.12 -0.74,0.17 -0.34,0.1 -0.03,-0.01 -0.37,0.14l-0.22 0.13c0.55,0.93 0.38,0.11 0.94,1.34l0.88 1.53c0.34,0.45 0.3,0.21 0.47,0.45 0.34,0.46 0.2,1.03 0.15,1.61 -1.01,0.15 -0.55,0.04 -1.36,-0.23l-2.28 -0.6c-1.26,-0.2 -1.98,-0.32 -2.01,1.8 -0.01,0.53 0.23,1.48 0.36,2.14 0.14,0.71 0.39,1.36 0.54,1.94 0.55,2.13 1.12,2.74 1.46,3.66 0.4,1.09 1.03,1.7 1.83,3.24 0.74,1.44 0.72,0.65 0.96,1.72 -0,0.49 0.63,1.2 1.06,1.66 0.22,0.23 0.36,0.38 0.55,0.57 1.83,1.85 6.47,4.81 6.67,5.57 -0.26,0.35 -0.87,0.63 -1.32,0.9 -2.49,1.47 -3.18,2.67 -4.92,4.46 -1.38,1.42 -2.07,2.52 -3.14,4.02 -0.34,0.48 -0.56,0.74 -0.9,1.32 -2.19,3.73 -4.5,7.66 -4.5,12.19 1.08,0 1.75,-0.08 2.56,-0.3 0.65,-0.17 1.67,-0.44 2.36,-0.5 0,1.78 -1.91,3.31 -1.91,5.72 4.27,0.99 8.33,1.12 12.74,-0.14 5.2,-1.5 6.02,-1.87 10.32,-4.46l2.85 -1.44c1.31,1.95 3.3,9.31 7.19,13.8l0.54 0.58c1.3,1.43 2.72,2.95 4.27,4.16 0.5,0.4 0.84,0.68 1.34,1.05 0.79,0.58 2.18,1.57 3.2,1.57 1.34,-2.53 1.46,-5.42 2.07,-6.68 0.55,0.2 0.07,-0.25 0.49,0.46 0.53,0.89 0.97,3.98 3.01,4.15l1.4 -2.58c0.54,-0.99 0.79,-1.79 1.21,-2.92 0.4,-1.05 0.62,-1.97 0.89,-3.09 1.17,-5.01 0.67,-6.69 0.64,-11.29 -0.01,-1.74 -0.8,-4.61 -0.8,-7.31 3.07,0 3.08,0.64 8.08,0.13 4.7,-0.47 8.73,-2.3 12.43,-4.74 0.82,-0.54 2.93,-2.27 3.37,-3.15 0.4,-0.8 0.19,-0.97 0.13,-1.78 -1.67,-0.39 -1.32,-0.73 -2.07,-0.48 -0.87,-0.22 -0.73,-0.26 -1.35,-0.69 -0.52,-0.36 -0.76,-0.31 -1.31,-0.58l-0.01 -0.96c0.95,-0.6 1.39,-0.44 2.48,-0.7 0.43,-0.1 0.75,-0.2 1.21,-0.32 0.75,-0.19 0.46,-0.14 0.95,-0.41 -0.03,-0.67 -0.37,-0.91 -0.78,-1.33 -0.56,-0.58 -0.8,-0.48 -0.96,-1.21 -0.24,-0.78 -3.75,-3.16 -4.33,-3.53l-1.81 -1.05c-3.15,-1.61 -6.15,-2.59 -9.82,-3.22 -3.1,-0.53 -2.69,-0.14 -6.84,-1.11 0.04,-0.47 0.79,-1.49 1.32,-2.82 1.48,-3.69 2.61,-10.51 1.77,-14.58 -0.52,-2.51 -1.93,-7.27 -4.04,-8.68 -0.87,0.23 -2.64,2.51 -3.38,3.3 -2.31,2.49 -1.06,0.08 -1.07,-2.82 -0,-1.31 0.44,-2.51 -1.04,-2.18 -0.66,0.15 -1.79,0.67 -2.41,0.96 -5.97,2.77 -9.6,7.59 -12,13.44 -1.15,2.79 -1.03,4.3 -3.16,5.43 -1.26,-1.88 -3.38,-2.96 -5.44,-4.1 -1.23,-0.68 -5.84,-2.94 -6.8,-2.58z"/>
   <path class="fil0" d="M69.16 5.09c10.64,0 19.63,1.64 28.88,5.94l2.65 1.33c5.36,2.68 10.09,6.3 14.56,10.24 0.02,0.02 0.06,0.05 0.08,0.07l0.5 0.46c0.02,0.02 0.06,0.05 0.08,0.07 3.94,3.47 8.24,9.17 10.95,13.69l0.76 1.31c0.54,0.8 0.94,1.67 1.39,2.58l2.56 5.55c2.78,6.94 3.66,12.36 4.5,19.99 0.82,7.47 -0.53,14.98 -2.22,21.74 -1.01,4.04 -2.75,7.96 -4.49,11.72 -2.05,4.43 -5.71,9.81 -8.89,13.37l-1.92 2.22c-1.45,1.74 -3.44,3.52 -5.22,4.95 -1.5,1.21 -2.91,2.47 -4.52,3.58 -2.85,1.96 -5.78,3.68 -8.83,5.32 -4.18,2.26 -8.73,3.72 -13.33,4.95 -2.18,0.58 -4.35,0.9 -6.77,1.34 -7.41,1.35 -18.31,0.4 -24.84,-1.21 -5.64,-1.39 -10.97,-3.45 -16.02,-6.24 -2.54,-1.4 -5.04,-3.01 -7.38,-4.7l-7.67 -6.64c-2.04,-2.03 -3.82,-4.23 -5.59,-6.49l-1.74 -2.39c-1.15,-1.65 -2.12,-3.24 -3.12,-4.99 -2.05,-3.56 -3.67,-7.25 -5.02,-11.2 -1.49,-4.35 -2.36,-8.53 -3.01,-13.21l-0.38 -11.53c0.47,-5.74 1.35,-11.61 3.27,-17.08 2.65,-7.58 6.36,-14.73 11.56,-20.88 1.2,-1.42 2.58,-3.11 3.9,-4.36 0.02,-0.02 0.06,-0.05 0.08,-0.08l2.94 -2.79c0.45,-0.36 0.7,-0.62 1.11,-0.95 2.55,-2.05 6.65,-5.38 9.46,-6.76 3.23,-1.59 4.28,-2.47 8.08,-4 1.93,-0.78 3.87,-1.59 5.92,-2.19l4.8 -1.24c0.62,-0.14 1.1,-0.22 1.72,-0.35 3.71,-0.75 7.17,-1.18 11.22,-1.18zm-69.16 65.66c0,7.81 1.33,15.24 3.72,22.52 0.39,1.17 0.8,2.18 1.19,3.26l1.32 3.13c0.43,0.94 0.93,1.95 1.4,2.89l1.14 2.19c0.12,0.25 0.21,0.41 0.39,0.72l4.28 6.53c1.03,1.44 2.05,2.91 3.26,4.21 0.02,0.02 0.06,0.06 0.08,0.08l3.84 4.11c0.73,0.74 1.39,1.45 2.14,2.15l2.38 2.07c1.59,1.38 3.26,2.54 4.94,3.81l2.59 1.7c0.97,0.59 1.8,1.14 2.76,1.69 6.4,3.68 13.45,6.4 20.72,7.9 7.55,1.56 15.72,2.05 23.4,0.91l7.28 -1.31c2.36,-0.56 4.53,-1.21 6.67,-1.92 4.68,-1.55 8.96,-3.82 13.26,-6.14l2.72 -1.73c2.45,-1.81 5.12,-3.43 7.33,-5.55l1.19 -1.04c0.42,-0.38 0.71,-0.71 1.11,-1.11 0.46,-0.45 0.76,-0.58 1.2,-1.03l1.45 -1.57c0.02,-0.02 0.05,-0.06 0.08,-0.08l1.49 -1.69c2.02,-2.3 4.09,-4.68 5.75,-7.29l2.5 -4.01c0.26,-0.48 0.5,-0.81 0.78,-1.29 1.11,-1.86 2.05,-3.9 2.9,-5.84 0.11,-0.24 0.22,-0.55 0.32,-0.79 0.09,-0.22 0.25,-0.55 0.34,-0.77l1.19 -3.1c0.76,-2.24 1.45,-4.34 2.02,-6.73 2.07,-8.8 2.66,-18.17 1.35,-27.17 -0.07,-0.47 -0.2,-1.27 -0.26,-1.81 -0.2,-1.88 -0.76,-3.57 -1.19,-5.49 -0.28,-1.27 -0.61,-2.11 -0.96,-3.33l-2.64 -7.22c-0.19,-0.5 -0.11,-0.28 -0.37,-0.75l-2.12 -4.4c-1.46,-2.86 -3.32,-5.45 -5.08,-8.12 -0.61,-0.93 -1.17,-1.61 -1.85,-2.44l-1.5 -1.84c-1.53,-1.81 -3.26,-3.42 -4.84,-5.17 -1.09,-1.2 -2.36,-2.2 -3.57,-3.27 -0.02,-0.02 -0.06,-0.05 -0.08,-0.08 -1.9,-1.62 -3.99,-3.01 -6,-4.49 -2.39,-1.76 -5.51,-3.53 -8.26,-4.78l-4.48 -2.04c-0.36,-0.18 -0.37,-0.18 -0.8,-0.32 -0.42,-0.14 -0.46,-0.17 -0.8,-0.31l-3.31 -1.14c-1.05,-0.33 -2.13,-0.65 -3.3,-0.99 -3.76,-1.09 -7.13,-1.56 -11.14,-2.06l-4.18 -0.27c-1.48,0.01 -2.66,-0.16 -4.3,-0.16 -0.92,-0 -1.16,0.12 -1.9,0.16 -2.38,0.13 -1.44,-0.07 -4.18,0.28 -3.8,0.47 -7.44,0.98 -11.05,1.98 -2.8,0.77 -5.52,1.65 -8.23,2.74 -0.52,0.21 -1.05,0.43 -1.55,0.68l-11.33 6.16c-0.6,0.36 -0.73,0.59 -1.29,0.94 -1.97,1.24 -6.76,5.14 -8.48,6.95 -0.37,0.39 -0.65,0.76 -1.08,1.15l-7.01 8.25 -2.63 3.89c-0.62,0.94 -1.1,1.85 -1.69,2.76l-2.92 5.82c-0.43,1.12 -0.88,1.9 -1.27,3.02 -0.22,0.63 -0.39,1.01 -0.59,1.63 -0.54,1.65 -1.17,3.2 -1.6,4.91 -1.62,6.44 -2.67,11.97 -2.67,19.43z"/>
   <path class="fil0" d="M70.91 75.84c-2.31,0 -5.1,-1.44 -6.15,-3.55 -2.93,-5.9 4.29,-12.51 10.24,-7.54 2.15,1.8 2.43,4.44 1.54,7.01 -0.84,2.42 -3.19,4.07 -5.63,4.07zm-9.38 -6.84c0,1.46 0.14,2.95 0.74,4.19 0.22,0.46 0.47,0.99 0.7,1.37l0.99 1.23c0.23,0.25 0.24,0.23 0.5,0.45 2.78,2.33 6.44,2.72 9.82,1.37 1.48,-0.6 3.56,-2.1 4.32,-3.63 1.27,-2.54 1.06,-2.78 1.06,-5.46 0,-1.78 -1.36,-4.15 -2.66,-5.45 -2.81,-2.79 -6.81,-3.53 -10.43,-1.77 -2.69,1.31 -5.03,4.29 -5.03,7.69z"/>
   <path class="fil0" d="M40.84 60.26c-0.24,-1.07 -0.22,-0.28 -0.96,-1.72 -0.8,-1.54 -1.43,-2.15 -1.83,-3.24 -0.34,-0.92 -0.9,-1.53 -1.46,-3.66 -0.15,-0.58 -0.4,-1.23 -0.54,-1.94 -0.13,-0.66 -0.37,-1.61 -0.36,-2.14 0.03,-2.12 0.75,-2 2.01,-1.8l2.28 0.6c0.81,0.27 0.35,0.37 1.36,0.23 0.05,-0.58 0.19,-1.14 -0.15,-1.61 -0.17,-0.24 -0.13,-0.01 -0.47,-0.45l-0.88 -1.53c-0.56,-1.23 -0.39,-0.41 -0.94,-1.34l0.22 -0.13c0.34,-0.14 0.02,-0.04 0.37,-0.14 0.18,-0.05 0.64,-0.15 0.74,-0.17 2.04,-0.45 7.92,-0.02 9.94,0.37 0.61,0.12 0.98,0.36 1.67,0.38 -0.32,-0.43 0.25,-0.14 -0.66,-0.46l-2.36 -0.49c-1.17,-0.07 -2.35,-0.31 -3.49,-0.33 -2.51,-0.03 -4.94,-0.29 -7,0.8 0.8,1.2 2.54,3.4 2.86,4.77 -0.74,-0.02 -1.95,-0.43 -2.56,-0.62 -1.3,-0.4 -2.36,-1.09 -3.03,0.11 -0.9,1.62 0.69,6.16 1.23,7.57 0.59,1.55 0.79,2.16 1.71,3.7 0.37,0.62 0.69,1.08 1.06,1.64l0.93 1.33c0.28,0.27 -0.11,-0.03 0.33,0.26z"/>
   <path class="fil0" d="M123.06 97.15l0 1.43c-0.97,0.08 -0.95,0.56 -0.95,1.59 -0.83,0.07 -0.29,-0.15 -0.48,0.32 0.65,0.34 2.08,1.13 2.7,1.27 -0.32,-1.19 -1.59,-0.17 -2.07,-2.23l0.64 -0.64c1.34,0.31 1.54,0.88 2.38,0.95 -0.29,-1.09 -1.15,-0.17 -2.07,-1.91 0.14,-0.29 0.12,-0.2 0.16,-0.64 1.86,-0.44 1.34,0.51 2.86,0.64 -0.15,-0.58 -0.24,-0.47 -0.86,-0.73 -0.42,-0.18 -0.25,-0.11 -0.53,-0.26 -0.79,-0.41 -0.8,-0.46 -1.79,0.2z"/>
   <path class="fil0" d="M110.66 71.71c-0.22,-0.51 -0.45,-0.62 -1.18,-1.05 -0.65,-0.38 -1.01,-0.29 -1.21,-1.02 0.43,-0.21 3.47,-0.65 5.09,-1.43 -0.18,-0.75 -1.05,-1.66 -1.68,-2.14l-0.8 -0.57c0.16,0.74 0.4,0.63 0.96,1.21 0.4,0.42 0.75,0.66 0.78,1.33 -0.49,0.27 -0.19,0.22 -0.95,0.41 -0.46,0.12 -0.79,0.22 -1.21,0.32 -1.09,0.26 -1.52,0.1 -2.48,0.7l0.01 0.96c0.54,0.26 0.79,0.22 1.31,0.58 0.62,0.43 0.48,0.47 1.35,0.69z"/>
   <path class="fil0" d="M77.11 129.26c-0.9,-0.24 -0.45,-0.62 -1.79,-0.02 -0.28,0.13 -0.04,0.14 -0.35,0.07l-0.4 -0.21c0,1.31 0.32,1.93 0.32,3.02l0.32 0c0,-0.31 0.02,-0.63 -0.02,-0.94 -0,-0.02 -0.56,-1.93 0.82,-1.93 0.84,0 0.95,1.64 0.95,2.54 0.75,-0.07 0.4,0.43 0.22,-1.5 -0.05,-0.52 0.33,-1.37 0.73,-1.37 0.37,0 0.71,0.31 0.95,0.48 0,0.71 -0.14,1.78 0.48,2.23 0,-2.27 -0.31,-4.05 -2.23,-2.38z"/>
   <path class="fil0" d="M120.35 103.03c-1.52,0.13 -0.53,1.31 -1.59,1.59l2.54 1.75c-0.06,-0.55 0.15,-0.34 -0.85,-0.9 -1.44,-0.82 -0.94,-1.96 -0.26,-1.96 1.06,0 1.23,0.87 2.23,0.95 -0.29,-1.08 -1.75,-0.58 -1.75,-2.07 0,-1.66 2.28,0.27 2.86,0.32 -0.12,-0.47 -0.15,-0.38 -0.89,-0.86 -1.23,-0.8 -2.29,-1 -2.29,1.18z"/>
   <path class="fil0" d="M71.23 128.63l0 0.64c0.67,0.45 0.38,0.4 1.33,0.73 1.49,0.52 1,1.18 0.89,1.65 -1.88,0.44 -1.18,-0.2 -2.23,-0.48 0.55,2.37 4.28,0.34 2.3,-1.18 -0.23,-0.18 -0.23,-0.15 -0.41,-0.23 -1.15,-0.49 -1.41,-0.15 -1.41,-1.45 1.37,-0.72 1.2,-0.07 2.07,0.16 -0.29,-1.08 -1.75,-0.89 -2.15,-0.56 -0.12,0.1 -0.39,0.5 -0.39,0.72z"/>
   <path class="fil0" d="M98.25 123.38l0 -0.48c0.58,-0.5 0.4,-0.48 1.11,-0.48 1.61,0 1.37,2.38 0.16,2.38 -0.75,0 -1.27,-0.66 -1.27,-1.43zm-0.79 -0.48l1.48 2.97c0.32,0.6 0.14,0.68 0.75,0.84 -0.18,-0.77 -0.57,-0.92 -0.64,-1.75 0.92,0 1.91,-0.13 1.91,-1.27 0,-1.13 -1.45,-2.59 -2.64,-1.2 -0.7,0.82 -0.1,0.09 -0.86,0.4z"/>
   <path class="fil0" d="M113.52 109.55c0,0.88 0.43,1.54 1.07,1.95 1.05,0.68 3.54,0.34 3.54,-2.11l-0.48 0c0,4.05 -5.76,1.32 -3.23,-1.16 0.46,-0.45 0.49,-0.43 1.16,-0.58l0 -0.32c-0.67,0.02 -1.13,0.22 -1.46,0.6 -0.1,0.11 -0.38,0.58 -0.43,0.69 -0.14,0.34 -0.18,0.48 -0.18,0.94z"/>
   <path class="fil0" d="M86.97 128.15c0.04,-1.81 1.68,-0.97 1.75,-0.95 -0.05,0.6 -0.02,0.54 -0.56,0.71 -0.33,0.1 -0.86,0.22 -1.19,0.24zm-0.48 0c0,1.84 2.61,2.25 3.02,0.48 -1.18,0.31 -0.09,0.79 -1.91,0.79 -0.35,-0.52 -0.42,-0.22 -0.48,-0.95l2.23 -0.64c-0.45,-1.92 -2.86,-1.36 -2.86,0.32z"/>
   <path class="fil0" d="M106.68 118.29l0 -0.95c1.07,-0.71 0.83,-0.49 1.59,-0.32l0 0.48c-0.87,0.23 -0.42,0.7 -1.59,0.79zm-0.48 -0.32c0,1.74 1.71,1.59 2.39,1.59 0.44,-0.66 0.77,-0.5 0.79,-1.59l-0.32 0c-0.22,0.93 -0.22,0.65 -0.64,1.27 -0.85,0 -0.74,0.05 -1.43,-0.32 0.28,-0.54 0.26,-0.44 0.77,-0.82 0.37,-0.28 0.56,-0.5 0.98,-0.61 -0.14,-1.64 -2.54,-1.03 -2.54,0.48z"/>
   <path class="fil0" d="M96.19 126.4c-1.08,0 -0.41,-1.05 -0.16,-1.43 0.89,0 1.53,-0.14 1.11,0.77 -0.15,0.32 -0.51,0.66 -0.96,0.66zm-1.43 -1.75l0.41 -0.22c0.45,-0.37 1.53,-1.24 1.65,0.22 -0.5,0.01 -0.67,0.03 -1.01,0.26 -1.2,0.79 -0.21,1.65 -0.1,1.81 2.38,0 0.65,-1 2.23,-0.64 -0.23,-2.81 -2.74,-3.3 -3.18,-1.43z"/>
   <path class="fil0" d="M102.55 123.22c-0.43,0 -0.44,-0.08 -0.79,-0.16l0 -0.95c2.23,-1.49 1.36,1.11 0.79,1.11zm-1.91 -1.59l0.48 0c0.08,-0.97 1,-1.28 1.59,-0.48 -0.43,0.58 -1.43,0.47 -1.43,1.59 0,0.38 0.26,0.47 0.48,0.79 2.33,0 0.7,-0.92 2.23,-0.95 -0.13,-0.55 -1.15,-3.02 -2.81,-1.85 -0.39,0.28 -0.42,0.42 -0.53,0.9z"/>
   <path class="fil0" d="M111.45 114.32c-0.05,-0.19 -0.16,-0.43 -0.16,-0.48 0,-1.06 1.59,-1.44 1.59,-0.79 0,0.57 -0.91,1.15 -1.43,1.27zm2.7 -0.48l-0.32 0c-0.22,0.93 -0.22,0.65 -0.64,1.27l-1.27 -0.16c0.28,-1.19 0.89,-0.86 1.59,-1.91 -1.16,-1.74 -3.61,0.57 -1.91,2.06 1.06,0.93 2.51,0.24 2.54,-1.27z"/>
   <path class="fil0" d="M117.49 107.32l0 -0.79c0.57,-0.5 0.4,-0.48 1.11,-0.48 1.76,0 1.49,2.23 0.32,2.39 -0.58,-0.13 -1.43,-0.46 -1.43,-1.11zm1.27 1.43c0.85,0 1.43,-0.65 1.43,-1.59 0,-1.32 -1.73,-2 -2.67,-1.08 -0.96,0.95 -0.21,2.67 1.24,2.67z"/>
   <path class="fil0" d="M103.18 119.56c0.18,0.67 1.21,2.2 1.91,2.38 -0.36,-1.35 -1.76,-1.34 -0.64,-3.02 1.84,0 1.14,1.42 2.38,1.75 -0.03,-0.14 -1.52,-3.64 -2.86,-1.58 -0.6,0.93 0.02,0.12 -0.8,0.46z"/>
   <path class="fil0" d="M125.44 92.69c0.4,0.09 0.91,0.32 1.29,0.45 0.61,0.22 0.73,0.44 1.41,0.5l0 -0.48c-0.55,-0.05 -0.88,-0.2 -1.33,-0.41 -1.12,-0.54 -0.94,-1.81 0.06,-1.81 0.44,0 1.48,0.5 2.07,0.64 -0.16,-0.62 -0.22,-0.45 -0.88,-0.71 -2.47,-0.95 -2.1,0.04 -2.32,1.16 -0.12,0.64 -0.09,0.07 -0.3,0.66z"/>
   <path class="fil0" d="M124.97 93.49c0.26,0.66 0.79,0.28 1.82,1.2 0.02,0.02 0.06,0.06 0.08,0.08 0.35,0.32 0.08,0.91 -0,1.27 -1.77,0.47 -1.91,-0.92 -2.86,-0.48 0.26,0.36 0.06,0.14 0.44,0.35 0.03,0.02 0.08,0.03 0.11,0.05l0.54 0.26c2.54,1.11 1.98,-0.51 2.4,-1.46 0.32,-0.72 -0.11,0.46 0.17,-0.31 -0.76,-0.18 -2.43,-1.28 -2.7,-0.95z"/>
   <path class="fil0" d="M83.79 128.15c-0.38,-0.25 -0.17,-0.19 -0.64,-0.32 0,0.87 0.17,0.92 0.31,1.6 0.25,1.24 0.09,1.11 0.65,1.26 -0.06,-0.7 -0.91,-2.86 0.64,-2.86 0.77,0 1.05,1.62 1.11,2.38l0.32 0c0,-0.62 -0.09,-0.93 -0.22,-1.53 -0.21,-0.97 -0.15,-0.55 -0.57,-1.17 -1.11,0 -1.09,-0.11 -1.59,0.64z"/>
   <path class="fil0" d="M129.89 85.7c-0.78,0.02 -1.7,0.32 -2.39,0.48l0 0.32c2.76,-0.23 2.41,-1.02 3.72,-0.06 0.31,0.23 0.35,0.28 0.73,0.38 -0.22,-0.82 -0.69,-0.61 -1.79,-1.55 -0.58,-0.49 -1.38,-1.13 -2.03,-1.47 0.05,0.61 -0.2,0.28 0.8,0.95 0.8,0.54 0.83,0.49 0.95,0.95z"/>
   <path class="fil0" d="M108.75 115.91c0,1.28 1.48,0.16 2.23,0.16 0.6,0 0.45,0.53 0.21,0.83 -0.41,0.52 -0.67,0.13 -1.32,0.44 0.51,0.9 1.91,-0.23 1.91,-0.95 0,-0.52 -0.14,-0.12 -0.32,-0.79 -1.06,0 -2.38,1.09 -2.38,0.16 0,-0.79 0.81,-0.48 1.27,-1.11 -0.63,-0.29 -1.59,0.32 -1.59,1.27z"/>
   <path class="fil0" d="M94.12 126.72l-0.55 0.88c-0.02,0.01 -0.06,0.05 -0.09,0.07 -0.51,-0.12 -0.7,-0.27 -1.27,-0.32l0.5 0.61c3.05,0.26 1.57,-2.33 0.93,-3.95 -0.17,-0.44 -0.11,-0.52 -0.48,-0.79 -0.36,0.77 0.95,1.99 0.95,3.5z"/>
   <path class="fil0" d="M82.23 130.05c0.01,0.38 -0.1,0.42 -0.19,0.8l-1.11 0.16c-1.06,-1.58 -0.1,-2.27 -1.11,-2.54 0.09,1.06 0.27,2.08 0.79,2.86 2.29,0 0.85,-0.64 2.23,-0.32 0,-1.1 -0.4,-1.94 -0.48,-2.86l-0.13 1.9z"/>
   <path class="fil0" d="M127.19 87.45l-0.95 0.32c0.64,0.15 0.62,0.04 0.64,0.79 0.67,-0.18 0.28,-0.32 0.79,-0.32 0.95,0 0.6,0.32 2.23,0.32 0.2,-0.37 0.27,-0.41 0.32,-0.95 -0.51,0.14 -0.41,0.27 -0.79,0.64 -2.01,-0.47 -1.91,-0.46 -1.91,-1.43l-0.32 0.64z"/>
   <path class="fil0" d="M90.46 128.94l0.32 0c-0.05,-0.63 -0.43,-1.55 -0.62,-2.09 -0.23,-0.69 -0.5,-1.35 -0.66,-2.05l-0.32 0c0.03,1.21 1,2.97 1.27,4.13z"/>
   <path class="fil0" d="M126.55 89.51c1.02,0.09 1.84,0.71 2.86,0.79l0 -0.32c-0.96,-0.22 -1.64,-0.79 -2.86,-0.79l0 0.32z"/>
   <polygon class="fil0" points="125.09,88.85 125.41,89.23 125.79,88.91 125.47,88.53 "/>
  </g>
 </g>
</svg>
